<svg xmlns="http://www.w3.org/2000/svg" width="28" height="21" fill="none" viewBox="0 0 28 21">
  <path fill="#147278" d="M14.226 4.791a6.011 6.011 0 1 0 0 12.022 6.011 6.011 0 0 0 0-12.022Zm0 9.814a3.803 3.803 0 1 1 0-7.606 3.803 3.803 0 0 1 0 7.606ZM27.34 9.232a10.8 10.8 0 0 0-1.864-2.699 19.284 19.284 0 0 0-4.907-3.766A13.592 13.592 0 0 0 14.227.988a15.37 15.37 0 0 0-9.201 3.68c-1.13.89-2.14 1.92-3.006 3.067a9.62 9.62 0 0 0-.907 1.534 3.84 3.84 0 0 0-.38 1.533 3.84 3.84 0 0 0 .38 1.57c.48.99 1.11 1.9 1.864 2.7a19.286 19.286 0 0 0 4.907 3.765 13.594 13.594 0 0 0 6.342 1.78 15.371 15.371 0 0 0 9.201-3.681 16.743 16.743 0 0 0 3.067-3.03c.35-.482.653-.995.908-1.534a3.84 3.84 0 0 0 .319-1.57 3.84 3.84 0 0 0-.38-1.57Zm-2.245 2.147a8.5 8.5 0 0 1-1.435 2.036 16.866 16.866 0 0 1-4.195 3.263 11.224 11.224 0 0 1-5.239 1.485 12.978 12.978 0 0 1-7.667-3.104 14.374 14.374 0 0 1-2.551-2.6 6.59 6.59 0 0 1-.65-1.08 1.9 1.9 0 0 1-.172-.577c.026-.2.084-.394.172-.576a8.501 8.501 0 0 1 1.435-2.037 16.868 16.868 0 0 1 4.195-3.263 11.225 11.225 0 0 1 5.239-1.484c2.825.17 5.518 1.26 7.667 3.103a14.44 14.44 0 0 1 2.551 2.601c.25.338.469.7.65 1.08.088.181.146.376.172.576a1.9 1.9 0 0 1-.172.577Z"/>
  <path stroke="#000" d="M14.226 4.791a6.011 6.011 0 1 0 0 12.022 6.011 6.011 0 0 0 0-12.022Zm0 9.814a3.803 3.803 0 1 1 0-7.606 3.803 3.803 0 0 1 0 7.606ZM27.34 9.232a10.8 10.8 0 0 0-1.864-2.699 19.284 19.284 0 0 0-4.907-3.766A13.592 13.592 0 0 0 14.227.988a15.37 15.37 0 0 0-9.201 3.68c-1.13.89-2.14 1.92-3.006 3.067a9.62 9.62 0 0 0-.907 1.534 3.84 3.84 0 0 0-.38 1.533 3.84 3.84 0 0 0 .38 1.57c.48.99 1.11 1.9 1.864 2.7a19.286 19.286 0 0 0 4.907 3.765 13.594 13.594 0 0 0 6.342 1.78 15.371 15.371 0 0 0 9.201-3.681 16.743 16.743 0 0 0 3.067-3.03c.35-.482.653-.995.908-1.534a3.84 3.84 0 0 0 .319-1.57 3.84 3.84 0 0 0-.38-1.57Zm-2.245 2.147a8.5 8.5 0 0 1-1.435 2.036 16.866 16.866 0 0 1-4.195 3.263 11.224 11.224 0 0 1-5.239 1.485 12.978 12.978 0 0 1-7.667-3.104 14.374 14.374 0 0 1-2.551-2.6 6.59 6.59 0 0 1-.65-1.08 1.9 1.9 0 0 1-.172-.577c.026-.2.084-.394.172-.576a8.501 8.501 0 0 1 1.435-2.037 16.868 16.868 0 0 1 4.195-3.263 11.225 11.225 0 0 1 5.239-1.484c2.825.17 5.518 1.26 7.667 3.103a14.44 14.44 0 0 1 2.551 2.601c.25.338.469.7.65 1.08.088.181.146.376.172.576a1.9 1.9 0 0 1-.172.577Z"/>
</svg>
