<svg width="98" height="97" viewBox="0 0 98 97" fill="none" xmlns="http://www.w3.org/2000/svg">
<g id="image-camera-2--photos-picture-camera-photography-photo-pictures--Streamline-Core">
<rect width="98" height="97" stroke="none"/>
<g id="Group">
<path id="Vector" d="M87.4998 25.9819H10.4998C6.63382 25.9819 3.49982 29.084 3.49982 32.9105V81.4105C3.49982 85.237 6.63382 88.3391 10.4998 88.3391H87.4998C91.3658 88.3391 94.4998 85.237 94.4998 81.4105V32.9105C94.4998 29.084 91.3658 25.9819 87.4998 25.9819Z" stroke="#1A757A" stroke-width="5" stroke-linecap="round" stroke-linejoin="round"/>
<path id="Vector_2" d="M48.9999 71.018C56.7319 71.018 62.9999 64.8139 62.9999 57.1609C62.9999 49.5078 56.7319 43.3037 48.9999 43.3037C41.2679 43.3037 34.9999 49.5078 34.9999 57.1609C34.9999 64.8139 41.2679 71.018 48.9999 71.018Z" stroke="#1A757A" stroke-width="5" stroke-linecap="round" stroke-linejoin="round"/>
<path id="Vector_3" d="M66.4999 25.9821V15.5892C66.4999 13.7516 65.7624 11.9893 64.4496 10.69C63.1369 9.39062 61.3564 8.66064 59.4999 8.66064H38.4999C36.6434 8.66064 34.8629 9.39062 33.5501 10.69C32.2374 11.9893 31.4999 13.7516 31.4999 15.5892V25.9821" stroke="#1A757A" stroke-width="5" stroke-linecap="round" stroke-linejoin="round"/>
</g>
</g>
</svg>
