<svg xmlns="http://www.w3.org/2000/svg" width="48" height="48" viewBox="0 0 48 48" fill="none">
<path fill-rule="evenodd" clip-rule="evenodd" d="M23.9999 20C26.209 20 27.9999 21.7909 27.9999 24C27.9999 26.2091 26.209 28 23.9999 28C21.7908 28 19.9999 26.2091 19.9999 24C19.9999 21.7909 21.7908 20 23.9999 20ZM9.99988 20C12.209 20 13.9999 21.7909 13.9999 24C13.9999 26.2091 12.209 28 9.99988 28C7.79074 28 5.99988 26.2091 5.99988 24C5.99988 21.7909 7.79074 20 9.99988 20ZM37.9999 20C40.2091 20 41.9999 21.7909 41.9999 24C41.9999 26.2091 40.2091 28 37.9999 28C35.7908 28 33.9999 26.2091 33.9999 24C33.9999 21.7909 35.7908 20 37.9999 20Z" fill="black"/>
</svg>